REM DIRINDEX 1\2,1\3,1\4,1\5
REM DIRNAME "folder01","folder02","folder03","folder04","folder05"
TITLE ""
FILE "P1Q_t_1039-1048.mp3" MP3
  TRACK 01 AUDIO
    TITLE "3:cjc173_4073"
    INDEX 01 00:00:00
  TRACK 02 AUDIO
    TITLE "0:"
    INDEX 01 00:00:71
  TRACK 03 AUDIO
    TITLE "4:cjc173_4074"
    INDEX 01 00:01:18
  TRACK 04 AUDIO
    TITLE "0:"
    INDEX 01 00:02:19
  TRACK 05 AUDIO
    TITLE "5:cjc173_4075"
    INDEX 01 00:02:37
  TRACK 06 AUDIO
    TITLE "0:"
    INDEX 01 00:06:34
  TRACK 07 AUDIO
    TITLE "3:cjc173_4076"
    INDEX 01 00:07:04
  TRACK 08 AUDIO
    TITLE "0:"
    INDEX 01 00:08:37
  TRACK 09 AUDIO
    TITLE "4:cjc173_4077"
    INDEX 01 00:08:59
  TRACK 10 AUDIO
    TITLE "0:"
    INDEX 01 00:12:21
  TRACK 11 AUDIO
    TITLE "5:cjc173_4078"
    INDEX 01 00:12:41
  TRACK 12 AUDIO
    TITLE "0:"
    INDEX 01 00:17:22
  TRACK 13 AUDIO
    TITLE "3:cjc173_4079"
    INDEX 01 00:17:70
  TRACK 14 AUDIO
    TITLE "0:"
    INDEX 01 00:19:06
  TRACK 15 AUDIO
    TITLE "4:cjc173_4080"
    INDEX 01 00:19:25
  TRACK 16 AUDIO
    TITLE "0:"
    INDEX 01 00:23:37
  TRACK 17 AUDIO
    TITLE "5:cjc173_4081"
    INDEX 01 00:23:54
  TRACK 18 AUDIO
    TITLE "0:"
    INDEX 01 00:28:54
  TRACK 19 AUDIO
    TITLE "3:cjc173_4082"
    INDEX 01 00:29:26
  TRACK 20 AUDIO
    TITLE "0:"
    INDEX 01 00:30:43
  TRACK 21 AUDIO
    TITLE "4:cjc173_4083"
    INDEX 01 00:30:62
  TRACK 22 AUDIO
    TITLE "0:"
    INDEX 01 00:33:18
  TRACK 23 AUDIO
    TITLE "5:cjc173_4084"
    INDEX 01 00:33:37
  TRACK 24 AUDIO
    TITLE "0:"
    INDEX 01 00:37:60
  TRACK 25 AUDIO
    TITLE "3:cjc173_4085"
    INDEX 01 00:38:32
  TRACK 26 AUDIO
    TITLE "0:"
    INDEX 01 00:39:65
  TRACK 27 AUDIO
    TITLE "4:cjc173_4086"
    INDEX 01 00:40:12
  TRACK 28 AUDIO
    TITLE "0:"
    INDEX 01 00:41:48
  TRACK 29 AUDIO
    TITLE "5:cjc173_4087"
    INDEX 01 00:41:66
  TRACK 30 AUDIO
    TITLE "0:"
    INDEX 01 00:45:68
  TRACK 31 AUDIO
    TITLE "3:cjc173_4088"
    INDEX 01 00:46:38
  TRACK 32 AUDIO
    TITLE "0:"
    INDEX 01 00:47:41
  TRACK 33 AUDIO
    TITLE "4:cjc173_4089"
    INDEX 01 00:47:63
  TRACK 34 AUDIO
    TITLE "0:"
    INDEX 01 00:48:64
  TRACK 35 AUDIO
    TITLE "5:cjc173_4090"
    INDEX 01 00:49:11
  TRACK 36 AUDIO
    TITLE "0:"
    INDEX 01 00:55:27
  TRACK 37 AUDIO
    TITLE "3:cjc173_4091"
    INDEX 01 00:55:74
  TRACK 38 AUDIO
    TITLE "0:"
    INDEX 01 00:57:10
  TRACK 39 AUDIO
    TITLE "4:cjc173_4092"
    INDEX 01 00:57:32
  TRACK 40 AUDIO
    TITLE "0:"
    INDEX 01 01:00:36
  TRACK 41 AUDIO
    TITLE "5:cjc173_4093"
    INDEX 01 01:00:56
  TRACK 42 AUDIO
    TITLE "0:"
    INDEX 01 01:04:36
  TRACK 43 AUDIO
    TITLE "3:cjc173_4094"
    INDEX 01 01:05:06
  TRACK 44 AUDIO
    TITLE "0:"
    INDEX 01 01:06:31
  TRACK 45 AUDIO
    TITLE "4:cjc173_4095"
    INDEX 01 01:06:50
  TRACK 46 AUDIO
    TITLE "0:"
    INDEX 01 01:11:40
  TRACK 47 AUDIO
    TITLE "5:cjc173_4096"
    INDEX 01 01:11:59
  TRACK 48 AUDIO
    TITLE "0:"
    INDEX 01 01:16:41
  TRACK 49 AUDIO
    TITLE "3:cjc173_4097"
    INDEX 01 01:17:13
  TRACK 50 AUDIO
    TITLE "0:"
    INDEX 01 01:18:30
  TRACK 51 AUDIO
    TITLE "4:cjc173_4098"
    INDEX 01 01:18:55
  TRACK 52 AUDIO
    TITLE "0:"
    INDEX 01 01:20:74
  TRACK 53 AUDIO
    TITLE "5:cjc173_4099"
    INDEX 01 01:21:19
  TRACK 54 AUDIO
    TITLE "0:"
    INDEX 01 01:25:34
  TRACK 55 AUDIO
    TITLE "3:cjc173_4100"
    INDEX 01 01:26:04
  TRACK 56 AUDIO
    TITLE "0:"
    INDEX 01 01:27:33
  TRACK 57 AUDIO
    TITLE "4:cjc173_4101"
    INDEX 01 01:27:52
  TRACK 58 AUDIO
    TITLE "0:"
    INDEX 01 01:29:63
  TRACK 59 AUDIO
    TITLE "5:cjc173_4102"
    INDEX 01 01:30:08
  TRACK 60 AUDIO
    TITLE "0:"
    INDEX 01 01:34:45
